<svg id="svg" version="1.1" xmlns="http://www.w3.org/2000/svg" xmlns:xlink="http://www.w3.org/1999/xlink" width="400" height="388.785046728972" viewBox="0, 0, 400,388.785046728972"><g id="svgg"><path id="path0" d="M193.191 40.483 C 191.265 40.678,189.323 40.926,188.876 41.033 C 187.547 41.352,186.850 43.709,186.604 48.713 C 186.396 52.950,185.688 57.240,184.819 59.533 C 184.616 60.068,184.266 62.169,184.041 64.202 C 183.551 68.621,182.922 71.595,182.478 71.595 C 182.299 71.595,182.050 71.923,181.923 72.323 C 181.661 73.147,178.411 74.067,173.541 74.694 C 168.416 75.355,166.074 75.913,164.634 76.816 C 163.861 77.300,161.479 78.101,159.339 78.595 C 156.834 79.173,154.893 79.877,153.891 80.570 C 152.549 81.499,148.171 82.912,144.658 83.551 C 143.460 83.768,141.645 82.075,131.888 71.638 C 125.153 64.433,125.367 64.642,122.746 62.712 L 121.562 61.840 119.633 62.664 C 116.015 64.209,115.369 64.555,114.397 65.467 C 113.862 65.969,112.619 66.768,111.635 67.243 C 110.650 67.717,109.386 68.621,108.825 69.251 C 108.263 69.881,107.239 70.689,106.547 71.046 C 105.856 71.404,105.107 71.894,104.883 72.136 C 101.119 76.194,100.911 76.861,102.724 79.060 C 103.366 79.839,104.280 81.499,104.755 82.748 C 105.229 83.997,105.945 85.370,106.345 85.798 C 107.301 86.822,108.400 88.998,108.728 90.516 C 108.872 91.186,109.597 92.411,110.338 93.240 C 111.080 94.069,111.875 95.447,112.106 96.304 C 112.337 97.160,113.210 98.865,114.045 100.093 C 116.225 103.297,115.962 104.018,110.679 109.339 C 106.798 113.248,105.583 114.579,104.643 115.953 C 103.791 117.198,102.420 118.872,101.316 120.014 C 101.077 120.262,100.760 120.846,100.612 121.311 C 100.464 121.777,99.928 122.485,99.420 122.885 C 98.912 123.284,97.943 124.549,97.267 125.696 C 96.591 126.843,95.528 128.400,94.906 129.155 C 94.284 129.910,93.774 130.687,93.774 130.883 C 93.774 131.706,92.033 134.637,91.430 134.828 C 91.070 134.942,90.268 135.553,89.648 136.184 C 88.377 137.479,87.475 137.615,85.832 136.758 C 84.340 135.980,79.989 135.135,75.875 134.823 C 71.739 134.510,66.746 133.585,65.048 132.817 C 60.717 130.857,56.968 131.885,56.215 135.238 C 55.871 136.770,54.993 138.686,53.891 140.310 C 53.393 141.044,52.867 142.386,52.723 143.293 C 52.277 146.096,51.297 149.170,50.482 150.326 C 48.801 152.710,51.080 156.007,55.480 157.557 C 56.952 158.076,58.560 158.875,59.055 159.334 C 59.550 159.793,61.201 160.570,62.724 161.060 C 64.247 161.551,65.859 162.304,66.307 162.734 C 67.218 163.609,68.969 164.427,71.639 165.222 C 72.625 165.516,73.851 166.156,74.362 166.644 C 74.874 167.132,75.948 168.016,76.751 168.610 C 77.851 169.424,78.210 169.966,78.210 170.813 C 78.210 172.139,77.146 176.901,76.637 177.852 C 75.336 180.284,74.596 200.512,75.539 207.869 C 76.211 213.105,74.795 215.487,70.162 216.920 C 68.917 217.305,67.111 218.180,66.148 218.866 C 65.185 219.551,63.434 220.413,62.257 220.781 C 61.080 221.149,59.416 221.939,58.560 222.537 C 57.704 223.134,55.946 223.986,54.654 224.429 C 49.974 226.033,46.917 229.168,47.807 231.450 C 48.030 232.022,48.324 233.541,48.461 234.825 C 48.747 237.514,50.045 242.274,50.583 242.607 C 50.784 242.731,51.402 244.268,51.956 246.022 C 53.170 249.863,53.746 250.584,55.605 250.583 C 57.046 250.583,62.505 249.549,63.141 249.156 C 64.101 248.563,69.468 247.515,72.763 247.278 C 74.796 247.131,77.072 246.867,77.821 246.691 C 83.395 245.383,85.307 245.860,86.607 248.883 C 86.895 249.553,87.559 250.610,88.083 251.232 C 88.607 251.855,89.339 253.320,89.710 254.489 C 90.081 255.658,90.798 257.064,91.304 257.612 C 91.810 258.160,92.845 259.824,93.605 261.309 C 94.365 262.793,95.372 264.446,95.844 264.981 C 96.316 265.516,97.031 266.604,97.433 267.399 C 97.834 268.194,98.751 269.381,99.470 270.035 C 100.190 270.690,100.778 271.465,100.778 271.759 C 100.778 272.052,101.566 273.126,102.529 274.146 C 103.492 275.165,104.283 276.103,104.286 276.229 C 104.293 276.477,105.778 278.215,108.202 280.811 C 111.446 284.285,112.041 286.442,110.259 288.269 C 109.768 288.772,109.251 289.560,109.111 290.020 C 108.556 291.844,107.266 294.408,106.439 295.331 C 105.960 295.866,105.181 297.366,104.708 298.665 C 104.236 299.963,103.422 301.487,102.899 302.051 C 102.377 302.614,101.587 303.994,101.144 305.117 C 100.701 306.241,99.869 307.869,99.294 308.736 C 97.154 311.963,97.045 312.342,97.857 313.732 C 98.874 315.474,100.726 317.401,102.335 318.395 C 103.084 318.857,104.006 319.623,104.384 320.096 C 104.762 320.569,105.725 321.346,106.524 321.823 C 107.323 322.300,108.502 323.179,109.144 323.777 C 111.608 326.070,116.732 327.049,116.732 325.227 C 116.732 325.048,116.945 324.903,117.206 324.903 C 117.466 324.903,118.078 324.440,118.564 323.873 C 120.245 321.917,127.448 314.314,131.954 309.740 L 136.477 305.149 139.347 306.012 C 140.926 306.487,142.711 307.079,143.313 307.329 C 143.916 307.578,144.495 307.782,144.601 307.782 C 144.706 307.782,145.439 308.280,146.229 308.888 C 147.019 309.496,148.453 310.217,149.416 310.490 C 152.873 311.469,153.357 311.655,154.433 312.422 C 155.773 313.376,158.328 314.250,160.836 314.613 C 161.873 314.763,163.911 315.464,165.364 316.171 C 167.982 317.446,169.781 317.831,177.231 318.715 C 181.528 319.225,182.425 319.732,183.950 322.516 C 185.708 325.727,185.818 326.393,187.386 343.385 C 188.220 352.426,188.364 352.529,200.167 352.529 C 212.462 352.528,212.500 352.482,213.410 336.770 C 214.191 323.275,216.181 319.581,223.152 318.686 C 224.864 318.467,227.531 318.117,229.079 317.910 C 230.815 317.677,232.977 317.026,234.721 316.209 C 236.276 315.482,238.337 314.764,239.300 314.615 C 241.331 314.300,244.853 313.236,245.136 312.851 C 245.563 312.273,247.809 311.293,250.475 310.524 C 252.037 310.073,253.750 309.280,254.335 308.738 C 254.914 308.202,255.838 307.656,256.390 307.525 C 256.942 307.393,257.568 307.161,257.782 307.008 C 257.996 306.855,259.460 306.403,261.035 306.003 L 263.899 305.275 268.817 310.413 C 271.522 313.238,275.311 317.241,277.237 319.307 C 282.682 325.147,283.080 325.501,284.754 326.003 C 286.647 326.570,289.666 325.413,291.610 323.377 C 292.238 322.718,292.972 322.179,293.241 322.179 C 293.509 322.179,294.528 321.391,295.505 320.428 C 296.482 319.465,297.436 318.677,297.627 318.677 C 298.115 318.677,301.262 315.579,302.059 314.313 C 303.044 312.747,302.885 311.809,301.219 309.368 C 300.391 308.156,299.592 306.734,299.444 306.208 C 298.991 304.610,298.322 303.370,297.189 302.029 C 296.595 301.326,296.109 300.573,296.109 300.354 C 296.109 299.590,294.462 296.294,293.599 295.331 C 293.120 294.796,292.320 293.240,291.822 291.874 C 291.324 290.508,290.505 288.945,290.001 288.402 C 288.087 286.337,288.979 283.739,292.937 279.852 C 293.748 279.056,295.139 277.411,296.029 276.196 C 296.920 274.981,297.834 273.872,298.062 273.731 C 298.289 273.590,298.933 272.749,299.494 271.862 C 300.054 270.975,300.902 269.942,301.378 269.567 C 301.855 269.193,302.518 268.201,302.853 267.364 C 303.189 266.526,303.933 265.341,304.508 264.730 C 305.082 264.119,306.019 262.643,306.588 261.449 C 307.158 260.256,308.103 258.768,308.688 258.142 C 309.273 257.516,309.858 256.566,309.988 256.031 C 310.118 255.496,310.351 254.883,310.506 254.669 C 310.661 254.455,310.895 253.829,311.026 253.277 C 311.158 252.725,311.663 251.834,312.150 251.297 C 312.637 250.759,313.364 249.688,313.766 248.916 C 315.090 246.374,315.822 245.973,318.482 246.332 C 319.767 246.506,322.743 246.836,325.097 247.066 C 329.276 247.475,334.200 248.425,335.448 249.063 C 336.612 249.658,341.819 250.583,344.006 250.583 C 346.686 250.584,347.168 250.125,348.102 246.693 C 348.480 245.302,349.154 243.551,349.599 242.802 C 350.709 240.933,351.263 239.134,351.576 236.381 C 351.722 235.097,352.062 233.171,352.331 232.101 C 352.804 230.221,352.184 228.260,350.943 227.709 C 350.805 227.648,350.157 227.120,349.503 226.536 C 348.849 225.953,347.293 225.146,346.044 224.744 C 344.796 224.342,342.899 223.438,341.829 222.736 C 340.759 222.034,338.745 221.095,337.354 220.649 C 335.963 220.204,334.246 219.346,333.539 218.742 C 332.832 218.138,331.206 217.330,329.926 216.947 C 326.172 215.823,323.911 212.917,324.611 210.117 C 324.798 209.368,324.967 203.327,324.986 196.693 C 325.021 184.344,324.791 181.715,323.204 176.364 C 321.734 171.406,321.958 168.482,323.809 168.482 C 324.032 168.482,325.032 167.882,326.032 167.149 C 327.031 166.415,329.064 165.358,330.549 164.799 C 332.033 164.240,334.041 163.281,335.009 162.669 C 335.978 162.056,337.791 161.239,339.038 160.852 C 340.285 160.466,341.691 159.792,342.163 159.355 C 343.018 158.563,345.232 157.490,347.082 156.970 C 350.100 156.123,351.212 153.049,349.599 150.015 C 349.073 149.026,348.262 146.604,347.796 144.633 C 347.331 142.663,346.550 140.438,346.062 139.689 C 345.574 138.940,344.785 137.276,344.310 135.992 C 342.820 131.966,341.454 131.454,336.409 133.036 C 333.565 133.928,330.070 134.528,325.875 134.845 C 322.204 135.122,317.817 135.942,315.934 136.705 C 312.068 138.270,309.090 136.546,306.641 131.323 C 306.039 130.039,305.064 128.473,304.473 127.843 C 303.882 127.213,303.172 126.162,302.894 125.508 C 302.616 124.854,301.774 123.746,301.023 123.045 C 300.272 122.344,299.536 121.381,299.387 120.905 C 299.238 120.428,299.009 119.951,298.878 119.844 C 298.413 119.467,295.907 116.465,295.331 115.597 C 295.010 115.113,293.828 113.769,292.704 112.611 C 291.581 111.453,290.661 110.353,290.661 110.167 C 290.661 109.980,290.070 109.423,289.347 108.927 C 288.623 108.431,287.619 107.358,287.115 106.542 C 286.610 105.726,286.092 105.058,285.963 105.058 C 284.517 105.058,284.911 102.269,286.616 100.430 C 287.114 99.893,287.629 98.962,287.761 98.361 C 288.112 96.763,289.081 94.923,290.336 93.469 C 290.943 92.766,291.440 91.857,291.440 91.449 C 291.440 91.041,291.601 90.608,291.799 90.485 C 291.996 90.363,292.269 89.758,292.405 89.141 C 292.540 88.524,293.010 87.694,293.449 87.297 C 294.344 86.487,295.720 83.974,295.720 83.148 C 295.720 82.850,296.227 81.907,296.846 81.052 C 298.067 79.366,299.222 77.277,299.222 76.753 C 299.222 76.017,295.262 71.811,293.701 70.887 C 292.778 70.342,291.799 69.584,291.525 69.204 C 291.251 68.823,290.113 68.055,288.996 67.496 C 287.879 66.938,286.527 66.088,285.992 65.607 C 284.503 64.269,283.196 63.553,281.706 63.258 C 280.960 63.110,279.978 62.807,279.523 62.584 C 278.329 61.997,276.989 63.175,268.677 72.119 C 266.323 74.652,264.069 77.016,263.669 77.370 C 262.414 78.482,261.089 79.942,261.089 80.213 C 261.089 80.357,259.983 81.344,258.630 82.407 L 256.170 84.340 254.669 83.609 C 253.844 83.208,252.960 82.879,252.705 82.879 C 251.596 82.879,247.347 81.270,246.198 80.415 C 245.432 79.845,243.444 79.135,241.104 78.596 C 238.993 78.110,236.473 77.291,235.503 76.775 C 233.796 75.868,230.096 75.025,225.681 74.540 C 218.554 73.756,217.308 72.493,216.717 65.458 C 216.337 60.935,215.944 58.505,214.439 51.362 C 214.010 49.329,213.651 46.723,213.639 45.571 C 213.606 42.191,212.648 41.029,209.633 40.709 C 205.193 40.238,196.743 40.122,193.191 40.483 M211.673 91.968 C 213.492 92.312,216.732 92.781,218.872 93.010 C 224.610 93.626,228.004 94.396,230.787 95.713 C 232.152 96.358,233.619 96.888,234.047 96.890 C 235.398 96.896,239.596 98.325,240.819 99.195 C 241.465 99.655,243.182 100.398,244.635 100.845 C 246.088 101.292,247.887 102.117,248.634 102.677 C 250.312 103.936,251.322 104.477,252.585 104.794 C 253.123 104.929,254.064 105.504,254.676 106.072 C 255.289 106.639,256.897 107.671,258.250 108.364 C 259.603 109.057,261.117 110.063,261.615 110.600 C 262.112 111.137,263.167 111.884,263.958 112.259 C 264.749 112.635,265.568 113.263,265.778 113.655 C 265.988 114.047,266.939 114.904,267.891 115.559 C 270.243 117.177,280.934 127.840,280.934 128.567 C 280.934 128.742,281.619 129.550,282.456 130.362 C 283.293 131.175,284.271 132.457,284.630 133.212 C 284.988 133.967,285.699 134.858,286.209 135.193 C 286.720 135.527,287.597 136.739,288.158 137.886 C 288.720 139.033,289.585 140.408,290.080 140.943 C 290.871 141.795,292.607 145.075,292.607 145.715 C 292.607 145.842,292.973 146.334,293.420 146.806 C 294.339 147.776,295.517 150.206,295.906 151.931 C 296.048 152.565,296.640 153.790,297.221 154.655 C 298.533 156.608,299.101 158.062,299.431 160.311 C 299.572 161.274,300.177 163.113,300.774 164.397 C 302.419 167.931,302.670 168.786,303.119 172.374 C 303.557 175.884,304.080 178.763,305.406 184.960 C 306.556 190.336,306.556 202.322,305.406 207.782 C 304.398 212.568,303.314 218.532,302.814 222.053 C 302.571 223.758,301.889 225.954,301.061 227.695 C 300.315 229.262,299.582 231.399,299.432 232.444 C 299.111 234.676,298.656 235.821,297.246 237.938 C 296.676 238.794,296.086 240.065,295.933 240.763 C 295.586 242.355,294.706 244.196,293.540 245.771 C 293.043 246.441,292.342 247.755,291.981 248.689 C 291.620 249.624,290.837 250.914,290.242 251.556 C 289.646 252.198,288.684 253.675,288.104 254.837 C 287.523 255.999,286.662 257.312,286.190 257.755 C 285.718 258.198,284.860 259.313,284.284 260.233 C 283.707 261.152,282.995 261.997,282.701 262.110 C 282.407 262.223,281.694 263.028,281.118 263.899 C 280.542 264.770,279.433 266.139,278.654 266.941 C 277.875 267.743,276.887 268.777,276.459 269.238 C 274.387 271.471,267.948 277.432,267.609 277.432 C 267.398 277.432,266.588 278.106,265.811 278.930 C 265.033 279.754,263.872 280.699,263.230 281.031 C 262.588 281.362,261.558 282.102,260.941 282.674 C 260.325 283.246,258.837 284.164,257.634 284.714 C 256.431 285.263,255.212 286.049,254.923 286.459 C 254.443 287.142,251.536 288.666,249.582 289.258 C 249.138 289.393,248.383 289.868,247.904 290.315 C 247.096 291.067,243.387 292.607,242.381 292.607 C 242.140 292.607,241.142 293.147,240.165 293.806 C 239.167 294.479,237.265 295.257,235.828 295.578 C 232.052 296.423,229.117 297.304,228.223 297.863 C 226.849 298.721,224.826 299.191,220.817 299.585 C 218.677 299.796,214.650 300.278,211.868 300.657 C 205.255 301.558,195.936 301.559,189.300 300.661 C 186.518 300.285,182.665 299.804,180.739 299.594 C 176.845 299.168,174.132 298.571,172.957 297.882 C 171.592 297.081,168.739 296.163,166.732 295.880 C 164.799 295.607,163.280 295.004,159.922 293.178 C 158.959 292.654,157.886 292.224,157.538 292.222 C 156.491 292.215,154.070 291.068,152.990 290.066 C 152.432 289.549,151.023 288.826,149.857 288.459 C 148.692 288.093,147.238 287.303,146.626 286.705 C 146.013 286.106,144.706 285.249,143.720 284.800 C 142.734 284.351,141.555 283.594,141.100 283.118 C 140.645 282.642,139.309 281.671,138.132 280.960 C 136.955 280.248,135.415 279.076,134.709 278.355 C 134.003 277.633,133.215 277.042,132.958 277.041 C 132.701 277.040,131.895 276.337,131.167 275.480 C 130.439 274.622,129.257 273.558,128.540 273.115 C 127.824 272.672,127.237 272.121,127.237 271.890 C 127.237 271.434,124.948 269.261,124.468 269.261 C 124.307 269.261,123.781 268.560,123.300 267.704 C 122.818 266.848,122.303 266.148,122.154 266.148 C 121.721 266.148,119.455 263.709,119.455 263.242 C 119.455 263.010,118.938 262.365,118.305 261.810 C 117.673 261.255,116.551 259.771,115.812 258.513 C 115.073 257.255,114.023 255.810,113.480 255.301 C 112.936 254.793,112.387 253.902,112.260 253.321 C 112.132 252.739,111.384 251.525,110.597 250.621 C 109.810 249.718,108.759 247.896,108.262 246.574 C 107.764 245.251,106.940 243.730,106.430 243.193 C 105.527 242.244,104.297 239.329,104.286 238.111 C 104.283 237.779,103.780 236.718,103.169 235.754 C 101.945 233.825,100.977 231.097,100.561 228.405 C 100.412 227.442,99.869 225.699,99.354 224.533 C 98.088 221.665,97.367 218.221,96.867 212.646 C 96.637 210.078,96.297 206.576,96.112 204.864 C 95.679 200.857,95.680 192.124,96.114 188.132 C 96.300 186.420,96.638 182.831,96.866 180.156 C 97.360 174.341,98.106 170.787,99.366 168.232 C 99.879 167.193,100.421 165.467,100.570 164.397 C 100.854 162.362,101.912 158.700,102.314 158.366 C 102.982 157.808,103.857 155.927,104.615 153.417 C 105.081 151.871,105.877 150.160,106.384 149.613 C 106.891 149.067,107.701 147.561,108.185 146.267 C 108.669 144.973,109.739 143.098,110.564 142.100 C 111.388 141.103,112.062 140.088,112.062 139.846 C 112.062 139.604,112.938 138.220,114.008 136.770 C 115.078 135.321,115.953 133.986,115.953 133.803 C 115.953 133.460,118.738 130.160,121.331 127.432 C 122.144 126.576,123.197 125.317,123.672 124.634 C 124.146 123.951,124.836 123.295,125.205 123.177 C 125.574 123.059,126.226 122.421,126.654 121.761 C 127.082 121.100,128.164 120.048,129.060 119.423 C 129.955 118.798,130.786 117.974,130.907 117.593 C 131.028 117.212,131.690 116.568,132.377 116.162 C 133.065 115.756,134.148 114.890,134.785 114.238 C 135.423 113.586,136.568 112.721,137.330 112.314 C 138.092 111.908,138.804 111.462,138.911 111.323 C 139.445 110.627,142.380 108.582,143.580 108.068 C 144.329 107.748,145.495 106.983,146.172 106.369 C 146.848 105.755,148.327 104.927,149.458 104.529 C 150.590 104.131,152.137 103.306,152.898 102.696 C 153.658 102.087,155.497 101.213,156.985 100.754 C 158.472 100.296,160.223 99.521,160.876 99.032 C 162.049 98.154,164.879 97.215,167.899 96.703 C 168.755 96.558,170.243 96.002,171.206 95.467 C 173.281 94.315,174.846 93.963,181.323 93.187 C 187.773 92.415,192.989 91.576,193.304 91.261 C 193.792 90.773,208.301 91.332,211.673 91.968 M191.440 120.214 C 187.056 120.581,184.545 121.134,182.790 122.120 C 182.083 122.517,180.457 123.042,179.176 123.286 C 173.825 124.308,173.030 124.552,171.475 125.649 C 170.578 126.282,168.881 127.098,167.704 127.464 C 166.527 127.830,164.951 128.585,164.202 129.142 C 162.470 130.431,160.460 131.518,159.807 131.518 C 159.529 131.518,158.594 132.197,157.729 133.028 C 156.865 133.858,155.821 134.644,155.410 134.775 C 155.000 134.905,153.835 135.758,152.823 136.669 C 151.811 137.581,149.974 139.202,148.741 140.272 C 145.798 142.825,138.521 151.007,138.521 151.763 C 138.521 151.969,137.931 152.795,137.209 153.598 C 136.487 154.401,135.508 155.915,135.034 156.963 C 134.559 158.010,133.508 159.849,132.699 161.048 C 131.890 162.248,131.102 163.924,130.950 164.773 C 130.673 166.313,129.723 168.503,129.172 168.872 C 128.611 169.247,127.713 171.886,127.439 173.968 C 127.169 176.027,126.564 178.387,124.905 183.852 C 123.316 189.092,123.857 209.121,125.652 211.475 C 125.982 211.908,127.039 216.344,127.451 219.027 C 127.759 221.032,128.484 222.871,129.764 224.899 C 130.271 225.701,130.808 227.037,130.959 227.868 C 131.288 229.685,131.991 231.140,133.170 232.446 C 133.652 232.980,134.476 234.434,135.000 235.677 C 135.525 236.920,136.339 238.288,136.809 238.716 C 137.280 239.144,138.014 240.157,138.441 240.968 C 138.868 241.778,139.632 242.829,140.140 243.302 C 140.647 243.776,141.450 244.711,141.924 245.379 C 142.962 246.845,150.568 254.475,150.991 254.475 C 151.156 254.475,152.101 255.263,153.092 256.226 C 154.083 257.189,155.135 257.977,155.431 257.977 C 155.726 257.977,156.697 258.677,157.588 259.533 C 158.479 260.389,159.290 261.089,159.392 261.089 C 160.025 261.089,163.396 262.884,164.228 263.664 C 165.118 264.499,168.977 266.148,170.039 266.148 C 170.263 266.148,171.306 266.739,172.357 267.462 C 173.521 268.262,174.998 268.885,176.141 269.056 C 178.690 269.437,182.973 270.590,185.798 271.655 C 188.044 272.503,188.608 272.537,200.778 272.552 L 213.424 272.568 215.953 271.498 C 217.344 270.910,220.409 270.047,222.763 269.580 C 225.849 268.967,227.499 268.423,228.679 267.627 C 229.579 267.020,231.529 266.113,233.012 265.611 C 234.495 265.109,236.308 264.242,237.039 263.684 C 237.771 263.126,239.219 262.294,240.257 261.835 C 241.294 261.376,242.548 260.564,243.041 260.031 C 243.535 259.498,244.633 258.687,245.482 258.228 C 246.330 257.769,247.694 256.779,248.512 256.027 C 249.330 255.276,250.438 254.376,250.973 254.026 C 252.926 252.750,260.064 245.170,260.857 243.528 C 261.050 243.129,261.357 242.802,261.538 242.802 C 261.719 242.802,261.868 242.567,261.868 242.280 C 261.868 241.993,262.643 240.938,263.590 239.935 C 264.537 238.932,265.424 237.605,265.560 236.985 C 265.696 236.366,266.233 235.399,266.755 234.837 C 267.645 233.876,268.421 232.373,269.672 229.183 C 269.966 228.434,270.678 227.118,271.256 226.259 C 271.833 225.400,272.484 223.824,272.702 222.757 C 273.471 219.007,273.981 217.296,274.937 215.269 C 277.674 209.463,277.644 183.788,274.893 177.567 C 274.350 176.340,273.540 173.751,273.092 171.812 C 272.644 169.874,271.925 167.675,271.494 166.926 C 269.541 163.529,269.261 162.987,269.261 162.613 C 269.261 161.851,267.664 158.714,266.874 157.925 C 266.437 157.488,265.841 156.560,265.550 155.864 C 265.259 155.167,264.415 153.871,263.674 152.984 C 262.932 152.097,261.929 150.712,261.444 149.907 C 260.621 148.541,258.163 145.560,256.388 143.774 C 255.962 143.346,255.006 142.383,254.263 141.634 C 253.521 140.885,252.783 140.141,252.624 139.981 C 251.860 139.212,245.808 134.630,245.556 134.630 C 245.398 134.630,244.494 133.928,243.549 133.069 C 242.603 132.210,241.391 131.397,240.856 131.263 C 240.321 131.128,239.063 130.424,238.060 129.697 C 237.058 128.970,235.107 127.980,233.725 127.497 C 232.343 127.014,230.488 126.138,229.601 125.552 C 228.715 124.965,227.164 124.317,226.154 124.111 C 225.145 123.905,223.384 123.549,222.242 123.321 C 221.099 123.092,219.611 122.595,218.934 122.216 C 215.655 120.378,201.657 119.359,191.440 120.214 M187.782 132.670 C 190.431 133.877,190.951 134.101,193.129 134.979 C 195.458 135.917,200.834 140.737,202.584 143.457 C 203.298 144.566,204.074 145.592,204.308 145.737 C 204.870 146.084,206.041 148.862,206.368 150.622 C 206.511 151.391,207.097 152.967,207.671 154.124 C 209.199 157.203,209.225 164.919,207.716 167.899 C 207.175 168.969,206.427 171.012,206.055 172.439 C 205.592 174.215,204.960 175.504,204.051 176.525 C 203.321 177.345,202.724 178.157,202.724 178.330 C 202.724 178.595,200.515 181.135,198.973 182.641 C 198.033 183.560,196.865 184.436,196.580 184.436 C 196.416 184.436,195.849 184.923,195.320 185.519 C 194.791 186.115,193.482 186.923,192.412 187.314 C 191.342 187.704,189.329 188.574,187.938 189.246 L 185.409 190.467 178.794 190.467 C 172.356 190.467,172.130 190.439,170.350 189.435 C 169.344 188.867,167.399 188.030,166.028 187.573 C 164.656 187.117,162.940 186.205,162.215 185.547 C 161.489 184.889,160.240 183.931,159.440 183.418 C 158.639 182.905,157.527 181.795,156.969 180.951 C 156.410 180.106,155.552 179.153,155.061 178.831 C 154.522 178.478,153.806 177.223,153.252 175.659 C 152.747 174.235,151.984 172.688,151.556 172.221 C 148.689 169.090,148.511 153.969,151.295 150.000 C 151.896 149.144,152.708 147.568,153.099 146.498 C 153.491 145.428,154.530 143.751,155.408 142.771 C 156.286 141.792,157.440 140.435,157.972 139.756 C 158.505 139.077,159.156 138.521,159.418 138.521 C 159.681 138.521,160.403 138.025,161.024 137.418 C 162.339 136.133,164.670 134.630,165.349 134.630 C 165.608 134.630,167.163 133.982,168.805 133.189 C 174.096 130.634,182.789 130.396,187.782 132.670 M239.349 229.344 C 240.707 229.914,244.771 232.287,245.676 233.037 C 246.971 234.113,249.805 240.741,249.805 242.696 C 249.805 245.033,247.046 250.842,245.085 252.633 C 240.287 257.016,230.334 256.631,226.132 251.901 C 221.748 246.966,221.327 241.469,224.816 234.688 C 226.758 230.913,235.462 227.713,239.349 229.344 " stroke="none" fill="#262525" fill-rule="evenodd"></path><path id="path1" d="M182.296 95.007 C 179.286 95.229,177.488 95.531,177.237 95.857 C 176.116 97.313,171.208 98.832,167.621 98.832 C 166.583 98.833,165.814 99.149,164.897 99.954 C 163.285 101.369,161.451 102.138,158.873 102.478 C 157.250 102.692,156.543 103.041,155.290 104.244 C 154.129 105.360,153.276 105.811,151.955 106.009 C 150.937 106.162,149.810 106.640,149.312 107.130 C 147.539 108.874,146.170 109.728,145.144 109.728 C 144.076 109.728,143.122 110.521,142.674 111.781 C 142.539 112.161,141.638 112.811,140.670 113.226 C 139.703 113.640,138.089 114.768,137.085 115.730 C 136.080 116.693,134.760 117.590,134.153 117.724 C 133.379 117.894,132.848 118.393,132.378 119.392 C 131.860 120.495,131.386 120.897,130.283 121.170 C 129.085 121.466,128.819 121.726,128.618 122.798 C 128.428 123.810,128.058 124.218,126.821 124.779 C 125.695 125.291,125.200 125.786,125.032 126.568 C 124.793 127.688,123.247 129.183,122.328 129.183 C 122.040 129.183,121.691 129.664,121.552 130.253 C 121.287 131.372,120.261 132.895,118.514 134.764 C 117.945 135.372,117.116 136.644,116.672 137.589 C 116.150 138.699,115.541 139.388,114.950 139.537 C 114.024 139.769,113.883 140.027,113.418 142.336 C 113.274 143.051,112.467 144.347,111.600 145.254 C 110.607 146.295,109.965 147.381,109.830 148.249 C 109.557 150.005,108.689 151.721,107.524 152.809 C 107.016 153.284,106.496 154.247,106.370 154.949 C 105.741 158.429,104.940 160.560,103.916 161.479 C 103.140 162.174,102.768 162.951,102.613 164.202 C 101.605 172.296,100.851 175.486,99.943 175.486 C 98.961 175.486,98.696 179.077,98.543 194.454 C 98.366 212.277,98.561 214.790,100.374 218.013 C 101.478 219.975,101.796 221.500,102.603 228.696 C 102.729 229.820,102.976 230.739,103.152 230.739 C 104.303 230.739,106.226 234.967,106.226 237.498 C 106.226 238.052,106.700 238.995,107.296 239.622 C 108.784 241.191,109.728 243.046,109.728 244.402 C 109.728 245.203,110.153 245.977,111.133 246.957 C 112.665 248.489,113.619 250.395,113.619 251.926 C 113.619 252.636,113.877 252.968,114.563 253.140 C 115.697 253.425,116.541 254.322,116.916 255.642 C 117.069 256.177,117.834 257.228,118.616 257.977 C 119.399 258.726,120.382 260.039,120.801 260.895 C 121.220 261.751,122.401 263.250,123.427 264.226 C 124.488 265.236,125.292 266.349,125.292 266.810 C 125.292 267.365,125.622 267.703,126.339 267.883 C 127.586 268.196,128.794 269.482,128.794 270.497 C 128.794 270.996,129.164 271.300,129.968 271.461 C 130.696 271.606,131.600 272.274,132.347 273.216 C 133.010 274.053,134.226 275.081,135.050 275.502 C 135.873 275.922,137.358 277.053,138.348 278.016 C 139.339 278.979,140.459 279.767,140.839 279.767 C 141.638 279.767,143.580 281.579,143.580 282.325 C 143.580 282.629,144.294 282.939,145.363 283.099 C 146.734 283.305,147.562 283.760,148.948 285.068 C 149.939 286.005,150.998 286.770,151.302 286.770 C 152.680 286.770,154.984 287.780,156.134 288.888 C 157.393 290.101,159.068 290.758,162.137 291.243 C 163.229 291.415,164.236 291.941,165.181 292.832 C 165.957 293.564,166.762 294.163,166.969 294.163 C 171.368 294.163,177.417 295.593,178.896 296.983 C 181.273 299.216,222.957 298.863,222.957 296.609 C 222.957 296.034,226.788 294.917,229.470 294.710 C 232.645 294.466,235.328 293.827,235.711 293.225 C 236.477 292.020,238.619 291.190,242.996 290.401 C 243.638 290.285,244.689 289.616,245.331 288.915 C 246.174 287.994,247.175 287.459,248.937 286.989 C 250.750 286.504,251.777 285.944,252.941 284.803 C 253.906 283.857,254.873 283.268,255.463 283.268 C 256.410 283.268,257.977 282.063,257.977 281.334 C 257.977 280.935,261.812 278.988,262.599 278.988 C 262.853 278.988,263.422 278.378,263.862 277.631 C 264.413 276.698,265.117 276.138,266.121 275.838 C 267.239 275.503,267.687 275.102,268.043 274.119 C 268.366 273.223,268.915 272.673,269.862 272.295 C 270.687 271.966,271.495 271.240,271.923 270.440 C 272.311 269.718,273.220 268.809,273.942 268.421 C 274.747 267.990,275.469 267.185,275.804 266.345 C 276.144 265.491,276.690 264.889,277.252 264.748 C 278.374 264.466,279.200 263.539,279.516 262.206 C 279.671 261.552,280.236 260.956,281.082 260.554 C 281.928 260.152,282.499 259.549,282.667 258.880 C 283.084 257.221,284.808 254.533,285.621 254.274 C 286.058 254.136,286.524 253.447,286.752 252.603 C 287.232 250.828,288.192 249.416,288.919 249.416 C 289.566 249.416,290.272 248.229,290.272 247.140 C 290.272 245.624,291.777 242.802,292.790 242.417 C 293.331 242.211,293.774 241.797,293.774 241.497 C 293.774 239.456,295.161 235.161,296.110 234.262 C 297.251 233.181,297.886 231.142,298.276 227.311 C 298.479 225.313,298.784 224.517,299.908 223.044 L 301.290 221.233 301.887 212.854 C 303.026 196.856,302.270 173.027,300.546 170.596 C 298.739 168.049,298.469 167.432,298.262 165.393 C 297.865 161.460,297.243 159.493,296.056 158.414 C 295.148 157.588,294.811 156.777,294.296 154.171 C 293.743 151.373,293.514 150.863,292.559 150.299 C 291.446 149.641,290.272 147.073,290.272 145.293 C 290.272 144.722,289.818 144.141,288.956 143.608 C 287.685 142.822,287.059 141.787,286.559 139.640 C 286.429 139.079,285.897 138.426,285.379 138.189 C 284.860 137.953,284.436 137.608,284.436 137.422 C 284.436 137.236,284.086 136.680,283.658 136.187 C 283.230 135.693,282.879 134.980,282.879 134.603 C 282.879 133.532,282.455 132.685,281.917 132.685 C 280.977 132.685,279.377 131.081,279.377 130.137 C 279.377 129.453,278.995 129.005,277.955 128.472 C 277.117 128.042,276.279 127.199,275.913 126.420 C 275.542 125.630,274.783 124.873,274.027 124.541 C 273.207 124.180,272.602 123.541,272.307 122.725 C 271.978 121.814,271.438 121.304,270.354 120.878 C 269.262 120.449,268.698 119.913,268.275 118.900 C 267.955 118.135,267.442 117.510,267.134 117.510 C 265.894 117.510,264.574 116.543,264.127 115.309 C 263.825 114.472,263.400 114.008,262.938 114.008 C 261.827 114.008,259.878 112.899,258.253 111.342 C 257.443 110.565,256.129 109.747,255.335 109.524 C 254.398 109.261,253.618 108.687,253.113 107.888 C 252.477 106.883,251.942 106.578,250.195 106.227 C 247.416 105.668,246.393 105.135,245.636 103.854 C 245.138 103.011,244.634 102.760,243.034 102.557 C 240.076 102.182,238.456 101.566,237.188 100.336 C 236.543 99.711,235.446 99.141,234.659 99.023 C 226.576 97.814,225.705 97.584,224.447 96.325 C 222.827 94.705,197.240 93.905,182.296 95.007 M213.424 118.657 C 220.281 118.988,221.596 119.286,223.402 120.923 C 224.125 121.578,225.163 121.954,226.903 122.188 C 230.857 122.721,232.290 123.272,233.011 124.539 C 233.366 125.164,233.981 125.677,234.376 125.678 C 236.860 125.687,240.467 127.427,240.467 128.616 C 240.467 128.943,241.333 129.413,242.626 129.789 C 244.154 130.233,245.303 130.919,246.553 132.134 C 247.525 133.079,248.611 133.858,248.966 133.865 C 249.819 133.882,251.199 135.061,251.509 136.038 C 251.645 136.467,252.472 137.133,253.346 137.519 C 254.426 137.995,255.060 138.580,255.326 139.343 C 255.568 140.036,256.239 140.714,257.076 141.111 C 257.981 141.540,258.705 142.312,259.243 143.420 C 259.762 144.487,260.387 145.169,260.985 145.319 C 261.581 145.468,262.163 146.101,262.597 147.069 C 262.970 147.903,263.987 149.275,264.856 150.118 C 266.016 151.245,266.563 152.182,266.915 153.649 C 267.290 155.213,267.591 155.696,268.300 155.874 C 269.183 156.096,270.428 158.073,270.428 159.253 C 270.428 160.341,271.529 162.453,272.504 163.235 C 273.471 164.011,274.708 167.955,274.708 170.263 C 274.708 170.828,275.185 171.652,275.877 172.282 C 277.323 173.598,277.733 175.518,278.205 183.198 C 278.394 186.262,278.735 188.995,278.964 189.270 C 280.272 190.847,280.274 201.758,278.966 203.334 C 278.732 203.617,278.379 206.440,278.183 209.609 C 277.700 217.420,276.678 221.401,275.157 221.401 C 275.004 221.401,274.655 222.845,274.380 224.611 C 273.847 228.027,273.142 229.546,271.945 229.859 C 271.539 229.965,271.206 230.305,271.206 230.614 C 271.206 231.267,270.124 234.945,269.685 235.785 C 269.521 236.099,268.877 236.638,268.255 236.983 C 267.445 237.432,267.061 237.998,266.902 238.975 C 266.667 240.420,265.406 242.458,264.237 243.281 C 263.851 243.552,263.159 244.515,262.698 245.420 C 262.235 246.330,261.339 247.335,260.694 247.668 C 260.053 248.000,259.222 248.922,258.848 249.717 C 258.400 250.668,257.668 251.398,256.710 251.849 C 255.804 252.276,255.253 252.806,255.253 253.250 C 255.253 254.060,254.379 254.895,252.853 255.544 C 252.283 255.786,251.582 256.477,251.297 257.078 C 250.972 257.763,250.009 258.553,248.716 259.193 C 247.582 259.755,246.444 260.484,246.187 260.813 C 245.377 261.850,242.730 263.424,241.796 263.424 C 241.221 263.424,240.663 263.826,240.237 264.547 C 239.431 265.910,237.653 266.808,235.082 267.149 C 233.553 267.352,233.070 267.599,232.726 268.353 C 232.185 269.541,230.622 270.178,226.654 270.829 C 224.318 271.213,223.198 271.614,222.167 272.437 C 217.554 276.120,179.900 275.547,178.452 271.772 C 178.332 271.461,177.747 271.206,177.152 271.206 C 173.719 271.206,168.547 269.399,168.202 268.078 C 168.066 267.556,167.503 267.274,166.211 267.081 C 163.721 266.707,162.230 266.021,161.064 264.713 C 160.518 264.100,159.309 263.346,158.378 263.039 C 157.222 262.657,156.455 262.090,155.958 261.248 C 155.494 260.461,154.817 259.932,154.087 259.786 C 153.457 259.660,152.587 259.202,152.152 258.767 C 151.718 258.332,151.197 257.977,150.995 257.977 C 150.793 257.977,150.399 257.656,150.119 257.264 C 149.840 256.873,148.825 255.986,147.864 255.294 C 146.903 254.601,145.791 253.521,145.394 252.893 C 144.996 252.265,144.544 251.751,144.390 251.751 C 143.936 251.751,141.634 249.578,141.634 249.149 C 141.634 248.934,141.060 248.162,140.358 247.433 C 138.280 245.277,136.965 243.366,136.965 242.505 C 136.965 242.011,136.465 241.389,135.676 240.901 C 134.279 240.038,133.647 239.034,133.260 237.062 C 133.121 236.352,132.772 235.798,132.464 235.798 C 131.635 235.798,130.120 233.124,129.615 230.769 C 129.355 229.558,128.819 228.375,128.343 227.962 C 127.028 226.822,126.442 225.329,126.035 222.083 C 125.633 218.873,125.128 217.121,124.607 217.121 C 122.897 217.121,122.140 210.812,122.132 196.498 C 122.124 182.514,122.948 175.486,124.595 175.486 C 125.128 175.486,125.630 173.757,126.035 170.524 C 126.458 167.149,127.038 165.750,128.485 164.612 C 129.202 164.048,129.519 163.344,129.684 161.950 C 129.942 159.775,131.233 157.341,132.310 156.999 C 132.779 156.850,133.144 156.244,133.314 155.328 C 133.668 153.419,134.462 152.267,135.624 151.975 C 136.147 151.844,136.576 151.460,136.576 151.121 C 136.576 149.930,137.857 147.830,139.735 145.942 C 140.780 144.892,141.634 143.831,141.634 143.584 C 141.634 143.052,142.227 142.451,143.650 141.541 C 144.223 141.174,145.011 140.335,145.400 139.677 C 145.788 139.019,146.815 138.126,147.682 137.693 C 148.548 137.261,149.424 136.540,149.628 136.092 C 149.833 135.644,150.343 135.088,150.762 134.857 C 151.181 134.625,151.748 134.231,152.022 133.981 C 152.297 133.731,153.042 133.412,153.678 133.273 C 154.417 133.110,155.132 132.537,155.660 131.684 C 156.150 130.891,156.906 130.258,157.522 130.125 C 159.157 129.772,160.280 129.117,160.514 128.380 C 160.783 127.533,162.563 126.684,165.467 126.017 C 166.697 125.735,167.704 125.294,167.704 125.037 C 167.704 123.760,170.089 122.832,175.540 121.990 C 176.319 121.869,177.369 121.375,177.875 120.891 C 179.589 119.250,180.840 119.004,189.485 118.617 C 194.081 118.411,197.933 118.144,198.045 118.024 C 198.157 117.904,200.175 117.925,202.529 118.071 C 204.883 118.217,209.786 118.481,213.424 118.657 M174.108 134.606 C 172.387 135.202,169.802 135.816,168.363 135.970 C 165.992 136.224,165.691 136.357,165.160 137.384 C 164.831 138.020,163.767 138.940,162.734 139.481 C 160.795 140.498,158.755 142.150,158.755 142.704 C 158.755 143.137,157.680 144.545,156.195 146.057 C 155.298 146.971,154.813 148.042,154.259 150.331 C 153.712 152.598,153.257 153.608,152.497 154.247 C 150.488 155.938,150.585 165.651,152.632 167.845 C 153.364 168.629,153.877 169.876,154.365 172.062 C 154.925 174.569,155.247 175.278,156.041 175.747 C 156.582 176.067,157.432 177.038,157.930 177.904 C 159.023 179.803,160.640 181.348,163.173 182.914 C 164.212 183.556,165.148 184.408,165.252 184.806 C 165.457 185.592,166.451 185.978,168.288 185.987 C 168.930 185.991,171.381 186.509,173.735 187.140 C 178.460 188.406,179.411 188.381,185.214 186.843 C 186.819 186.417,189.133 185.945,190.356 185.793 C 192.304 185.551,192.641 185.380,193.069 184.412 C 193.542 183.344,193.912 183.078,196.206 182.158 C 196.795 181.922,197.276 181.455,197.276 181.120 C 197.276 180.324,198.411 179.155,199.513 178.816 C 200.026 178.658,200.490 178.116,200.636 177.503 C 200.971 176.092,202.020 174.319,202.519 174.319 C 205.985 174.319,206.021 150.790,202.560 147.619 C 201.811 146.933,201.038 145.730,200.806 144.889 C 200.496 143.770,200.067 143.236,199.125 142.802 C 198.383 142.459,197.630 141.695,197.303 140.953 C 196.930 140.106,196.478 139.689,195.931 139.689 C 194.924 139.689,193.385 138.654,193.385 137.976 C 193.385 136.984,191.978 136.265,189.494 135.989 C 188.103 135.834,185.451 135.203,183.600 134.585 C 179.488 133.214,178.118 133.217,174.108 134.606 M233.074 232.685 C 232.753 232.892,231.960 233.065,231.312 233.068 C 230.016 233.075,228.405 234.014,228.405 234.763 C 228.405 235.026,227.886 235.547,227.252 235.922 C 224.492 237.552,224.486 249.007,227.245 249.613 C 228.049 249.789,228.564 250.280,229.066 251.349 C 229.908 253.140,230.540 253.300,236.770 253.297 C 241.442 253.295,241.789 253.196,242.362 251.690 C 242.574 251.130,243.290 250.434,243.953 250.142 C 245.552 249.436,246.073 247.598,246.086 242.607 C 246.099 237.218,244.397 233.880,241.315 233.251 C 240.742 233.134,239.639 232.871,238.865 232.667 C 237.055 232.189,233.825 232.199,233.074 232.685 " stroke="none" fill="#fafafa" fill-rule="evenodd"></path></g></svg>